<?xml version="1.0" encoding="utf-8"?>
<!-- Generator: Adobe Illustrator 19.1.0, SVG Export Plug-In . SVG Version: 6.00 Build 0)  -->
<svg version="1.1" xmlns="http://www.w3.org/2000/svg" xmlns:xlink="http://www.w3.org/1999/xlink" x="0px" y="0px"
	 viewBox="-211 302.5 188.5 188.5" style="enable-background:new -211 302.5 188.5 188.5;" xml:space="preserve">
<style type="text/css">
	.st0{fill:#FFFFFF;}
	.st1{fill:#99B5C3;}
	.st2{fill:#566E82;}
	.st3{fill:#424957;}
</style>
<g id="Layer_1">
	<g id="Layer_1_2_">
		<g id="Layer_1_1_">
			<title>Asset 17</title>
			<g id="Layer_2">
				<g id="Layer_1-2">
					<circle class="st0" cx="-116.8" cy="396.8" r="94.2"/>
				</g>
			</g>
		</g>
	</g>
</g>
<g id="Layer_2_1_">
	<g>
		<g>
			<path class="st0" d="M-89.4,467.7c3.7-21.6-3.1-39.1,2-56.9c4.2-14.5,9.2-33.5,9.5-48c0.3-12.1-1.4-21.2-8-26.4
				c-6.6-5.2-20.8-4.2-35.3,0c-14.5,4.2-14.1,3.8-28.2-1.4c-5.6-2.1-12.3-2-17.6-1.1v133.7h77.8V467.7z"/>
			<path class="st1" d="M-149.4,335.2c14.1,5.2,13.7,5.6,28.2,1.4s28.7-5.2,35.3,0c6.6,5.2,8.3,14.3,8,26.4
				c-0.3,14.4-5.2,33.5-9.5,48c-5.2,17.8,1.7,35.2-2,56.8h23.3V326.6H-167v7.5C-161.4,333.1-155,333.1-149.4,335.2z"/>
			<path class="st2" d="M-166,467.7c6.2-21.7,20.2-67.6,26.5-69.2c0,0-6.9,2.4-9.5,4c0,0-8.3,8.2-18.1,21.3v43.9H-166z"/>
			<path class="st1" d="M-131.2,405.2c-1.6-2.4-3.4-3.1-4.5-3.1c0.1-0.1,0.3-0.1,0.3-0.1c-8,3.7-15,57.7-16,65.8h37
				c-2.3-11.2-5.9-28.2-8.5-37.8C-124.8,422.2-127.8,410.5-131.2,405.2z"/>
			<path class="st3" d="M-131.2,405.2c3.4,5.2,6.5,16.9,8.5,24.6c2.5,9.6,6.2,26.7,8.5,37.8h7.5c-3.2-11.2-9.6-33.7-13.8-45
				c-4.7-12.3-10-21.9-13.8-21.2c-0.4,0.1-0.8,0.3-1.3,0.7C-134.6,402.1-132.7,402.8-131.2,405.2z"/>
		</g>
	</g>
</g>
</svg>
