<?xml version="1.0" encoding="utf-8"?>
<!-- Generator: Adobe Illustrator 19.1.0, SVG Export Plug-In . SVG Version: 6.00 Build 0)  -->
<svg version="1.1" id="Layer_1" xmlns="http://www.w3.org/2000/svg" xmlns:xlink="http://www.w3.org/1999/xlink" x="0px" y="0px"
	 viewBox="0 0 454.7 114.7" style="enable-background:new 0 0 454.7 114.7;" xml:space="preserve">
<style type="text/css">
	.st0{fill:#88AAB9;}
	.st1{fill:#424957;}
	.st2{fill:#3A414F;}
	.st3{fill:#FFFFFF;}
	.st4{fill:#99B5C3;}
	.st5{fill:#566E82;}
</style>
<g>
	<g>
		<path class="st0" d="M130.7,73l3.2,14.7h-1.6l-0.9-4.3h-3.7l-0.9,4.3h-1.6l3.2-14.7H130.7z M128,82h3.3l-1.6-7.9h0L128,82z"/>
		<path class="st0" d="M141.4,78.1L141.4,78.1c0.3-0.4,0.6-0.7,0.9-0.9c0.4-0.2,0.8-0.3,1.2-0.3c0.4,0,0.8,0.1,1.2,0.3
			c0.4,0.2,0.7,0.5,1,0.9c0.3,0.4,0.5,1,0.7,1.7c0.2,0.7,0.2,1.6,0.2,2.6s-0.1,1.9-0.2,2.6c-0.2,0.7-0.4,1.3-0.7,1.7
			c-0.3,0.4-0.6,0.7-1,0.9s-0.8,0.3-1.2,0.3c-0.4,0-0.8-0.1-1.1-0.3c-0.3-0.2-0.6-0.4-0.9-0.7v4.2h-1.5v-14h1.2V78.1z M141.7,85.7
			c0.2,0.2,0.5,0.4,0.7,0.6c0.3,0.2,0.5,0.3,0.9,0.3c0.3,0,0.6-0.1,0.8-0.2c0.2-0.1,0.4-0.4,0.6-0.7c0.2-0.3,0.3-0.8,0.4-1.3
			c0.1-0.5,0.1-1.2,0.1-2c0-0.8,0-1.5-0.1-2c-0.1-0.5-0.2-1-0.4-1.3c-0.2-0.3-0.4-0.6-0.6-0.7c-0.3-0.1-0.5-0.2-0.8-0.2
			c-0.2,0-0.5,0.1-0.8,0.3c-0.3,0.2-0.5,0.4-0.8,0.7V85.7z"/>
		<path class="st0" d="M148.9,80c0.1-0.4,0.2-0.8,0.3-1.2c0.2-0.4,0.4-0.7,0.6-1c0.3-0.3,0.6-0.5,0.9-0.7c0.4-0.2,0.8-0.2,1.2-0.2
			c1,0,1.7,0.3,2.2,0.8c0.5,0.5,0.8,1.3,0.8,2.2v5.9c0,0.5,0,0.9,0.1,1.2c0,0.3,0.1,0.5,0.2,0.7h-1.5l-0.2-0.9
			c-0.1,0.1-0.3,0.3-0.5,0.4c-0.2,0.1-0.4,0.2-0.6,0.3c-0.2,0.1-0.4,0.2-0.6,0.2c-0.2,0.1-0.4,0.1-0.5,0.1c-0.8,0-1.5-0.2-2-0.7
			s-0.8-1.1-0.8-2c0-0.7,0.2-1.2,0.5-1.7s0.7-0.9,1.2-1.3c0.5-0.4,1-0.7,1.6-0.9c0.6-0.2,1.1-0.4,1.7-0.5V80c0-0.6-0.1-1-0.4-1.4
			c-0.3-0.3-0.6-0.5-1.1-0.5c-0.3,0-0.5,0.1-0.7,0.2c-0.2,0.1-0.4,0.3-0.5,0.5c-0.1,0.2-0.3,0.4-0.4,0.7c-0.1,0.2-0.2,0.5-0.2,0.7
			L148.9,80z M153.6,82c-0.3,0.1-0.7,0.2-1.1,0.4c-0.4,0.2-0.8,0.4-1.1,0.6c-0.4,0.3-0.7,0.5-0.9,0.9c-0.2,0.3-0.4,0.7-0.4,1.1
			c0,0.5,0.1,0.9,0.4,1.2c0.2,0.3,0.6,0.4,1.1,0.4c0.4,0,0.8-0.1,1.1-0.3c0.3-0.2,0.6-0.5,0.9-0.8V82z"/>
		<path class="st0" d="M162.2,79.8c-0.1-0.2-0.1-0.4-0.2-0.7c-0.1-0.2-0.2-0.4-0.3-0.5c-0.1-0.1-0.3-0.3-0.5-0.4
			c-0.2-0.1-0.5-0.1-0.8-0.1c-0.4,0-0.6,0.1-0.9,0.4c-0.2,0.2-0.3,0.5-0.3,0.9c0,0.4,0.1,0.7,0.3,0.9c0.2,0.3,0.5,0.5,0.8,0.7
			c0.3,0.2,0.7,0.5,1.1,0.7c0.4,0.2,0.8,0.5,1.1,0.8c0.3,0.3,0.6,0.6,0.8,1c0.2,0.4,0.3,0.9,0.3,1.4c0,0.4-0.1,0.8-0.2,1.2
			c-0.1,0.4-0.3,0.7-0.6,0.9c-0.3,0.3-0.6,0.5-0.9,0.6c-0.4,0.1-0.7,0.2-1.2,0.2c-1,0-1.7-0.2-2.2-0.7s-0.9-1.2-1.2-2.1l1.3-0.3
			c0.1,0.2,0.2,0.5,0.3,0.7s0.2,0.4,0.4,0.6c0.2,0.2,0.3,0.3,0.5,0.4c0.2,0.1,0.4,0.2,0.7,0.2c0.2,0,0.4,0,0.6-0.1
			c0.2-0.1,0.3-0.2,0.5-0.3c0.1-0.1,0.3-0.3,0.3-0.5c0.1-0.2,0.1-0.4,0.1-0.6c0-0.4-0.1-0.8-0.3-1c-0.2-0.3-0.5-0.6-0.8-0.8
			c-0.3-0.2-0.7-0.5-1.1-0.7c-0.4-0.2-0.8-0.5-1.1-0.8c-0.3-0.3-0.6-0.6-0.8-1c-0.2-0.4-0.3-0.8-0.3-1.3c0-0.3,0.1-0.7,0.2-1
			c0.1-0.3,0.3-0.6,0.6-0.8c0.2-0.2,0.5-0.4,0.9-0.6c0.3-0.1,0.7-0.2,1.1-0.2c0.8,0,1.5,0.2,1.9,0.7s0.8,1.1,1,1.9L162.2,79.8z"/>
		<path class="st0" d="M170.1,79.8c-0.1-0.2-0.1-0.4-0.2-0.7c-0.1-0.2-0.2-0.4-0.3-0.5c-0.1-0.1-0.3-0.3-0.5-0.4
			c-0.2-0.1-0.5-0.1-0.8-0.1c-0.4,0-0.6,0.1-0.9,0.4c-0.2,0.2-0.3,0.5-0.3,0.9c0,0.4,0.1,0.7,0.3,0.9c0.2,0.3,0.5,0.5,0.8,0.7
			c0.3,0.2,0.7,0.5,1.1,0.7c0.4,0.2,0.8,0.5,1.1,0.8c0.3,0.3,0.6,0.6,0.8,1c0.2,0.4,0.3,0.9,0.3,1.4c0,0.4-0.1,0.8-0.2,1.2
			c-0.1,0.4-0.3,0.7-0.6,0.9c-0.3,0.3-0.6,0.5-0.9,0.6c-0.4,0.1-0.7,0.2-1.2,0.2c-1,0-1.7-0.2-2.2-0.7s-0.9-1.2-1.2-2.1l1.3-0.3
			c0.1,0.2,0.2,0.5,0.3,0.7c0.1,0.2,0.2,0.4,0.4,0.6c0.2,0.2,0.3,0.3,0.5,0.4c0.2,0.1,0.4,0.2,0.7,0.2c0.2,0,0.4,0,0.6-0.1
			c0.2-0.1,0.3-0.2,0.5-0.3c0.1-0.1,0.3-0.3,0.3-0.5c0.1-0.2,0.1-0.4,0.1-0.6c0-0.4-0.1-0.8-0.3-1c-0.2-0.3-0.5-0.6-0.8-0.8
			c-0.3-0.2-0.7-0.5-1.1-0.7c-0.4-0.2-0.8-0.5-1.1-0.8c-0.3-0.3-0.6-0.6-0.8-1c-0.2-0.4-0.3-0.8-0.3-1.3c0-0.3,0.1-0.7,0.2-1
			c0.1-0.3,0.3-0.6,0.6-0.8c0.2-0.2,0.5-0.4,0.9-0.6c0.3-0.1,0.7-0.2,1.1-0.2c0.8,0,1.5,0.2,1.9,0.7s0.8,1.1,1,1.9L170.1,79.8z"/>
		<path class="st0" d="M174,73h1.5v1.7H174V73z M174,77.1h1.5v10.6H174V77.1z"/>
		<path class="st0" d="M177.7,82.4c0-1.9,0.3-3.3,0.8-4.2c0.5-0.9,1.3-1.3,2.4-1.3c1.1,0,1.9,0.4,2.4,1.3c0.5,0.9,0.8,2.3,0.8,4.2
			c0,1.9-0.3,3.3-0.8,4.2c-0.5,0.9-1.3,1.3-2.4,1.3c-1.1,0-1.9-0.4-2.4-1.3C177.9,85.7,177.7,84.3,177.7,82.4z M179.1,82.4
			c0,0.9,0,1.6,0.1,2.1c0.1,0.5,0.2,1,0.3,1.3c0.1,0.3,0.3,0.5,0.5,0.7c0.2,0.1,0.5,0.2,0.8,0.2c0.3,0,0.6-0.1,0.8-0.2
			c0.2-0.1,0.4-0.3,0.5-0.7c0.1-0.3,0.2-0.8,0.3-1.3c0.1-0.5,0.1-1.3,0.1-2.1c0-0.9,0-1.6-0.1-2.1c-0.1-0.6-0.2-1-0.3-1.3
			c-0.1-0.3-0.3-0.5-0.5-0.6c-0.2-0.1-0.5-0.2-0.8-0.2c-0.3,0-0.6,0.1-0.8,0.2c-0.2,0.1-0.4,0.3-0.5,0.6c-0.1,0.3-0.2,0.8-0.3,1.3
			C179.2,80.8,179.1,81.5,179.1,82.4z"/>
		<path class="st0" d="M186.3,77.1h1.4v1.2c0.4-0.4,0.8-0.7,1.2-0.9c0.4-0.3,0.8-0.4,1.2-0.4c0.7,0,1.3,0.2,1.7,0.7
			c0.4,0.4,0.6,1.1,0.6,2.1v8H191v-7.8c0-0.6-0.1-1.1-0.3-1.3c-0.2-0.3-0.5-0.4-0.9-0.4c-0.4,0-0.7,0.1-1,0.3c-0.3,0.2-0.7,0.5-1,1
			v8.2h-1.5V77.1z"/>
		<path class="st0" d="M198.7,77.1h1.6v-2.2c0-0.7,0.2-1.3,0.5-1.6c0.3-0.4,0.9-0.5,1.7-0.5c0.2,0,0.4,0,0.6,0
			c0.2,0,0.4,0.1,0.6,0.1V74c-0.2-0.1-0.5-0.2-0.8-0.2c-0.4,0-0.6,0.1-0.8,0.3c-0.2,0.2-0.3,0.5-0.3,0.8v2.1h1.7v1.2h-1.7v9.3h-1.5
			v-9.3h-1.6V77.1z"/>
		<path class="st0" d="M204.7,82.4c0-1.9,0.3-3.3,0.8-4.2c0.5-0.9,1.3-1.3,2.4-1.3c1.1,0,1.9,0.4,2.4,1.3c0.5,0.9,0.8,2.3,0.8,4.2
			c0,1.9-0.3,3.3-0.8,4.2c-0.5,0.9-1.3,1.3-2.4,1.3c-1.1,0-1.9-0.4-2.4-1.3C205,85.7,204.7,84.3,204.7,82.4z M206.2,82.4
			c0,0.9,0,1.6,0.1,2.1c0.1,0.5,0.2,1,0.3,1.3c0.1,0.3,0.3,0.5,0.5,0.7c0.2,0.1,0.5,0.2,0.8,0.2c0.3,0,0.6-0.1,0.8-0.2
			c0.2-0.1,0.4-0.3,0.5-0.7c0.1-0.3,0.2-0.8,0.3-1.3c0.1-0.5,0.1-1.3,0.1-2.1c0-0.9,0-1.6-0.1-2.1c-0.1-0.6-0.2-1-0.3-1.3
			c-0.1-0.3-0.3-0.5-0.5-0.6c-0.2-0.1-0.5-0.2-0.8-0.2c-0.3,0-0.6,0.1-0.8,0.2c-0.2,0.1-0.4,0.3-0.5,0.6c-0.1,0.3-0.2,0.8-0.3,1.3
			C206.2,80.8,206.2,81.5,206.2,82.4z"/>
		<path class="st0" d="M213.3,77.1h1.5v1.3h0c0.2-0.3,0.4-0.6,0.6-0.8c0.2-0.2,0.4-0.3,0.6-0.4c0.2-0.1,0.4-0.2,0.7-0.2
			s0.5-0.1,0.8-0.1v1.4c-0.3,0-0.5,0-0.8,0.1c-0.2,0.1-0.5,0.2-0.7,0.3c-0.2,0.1-0.4,0.3-0.6,0.6c-0.2,0.2-0.4,0.5-0.6,0.9v7.5h-1.5
			V77.1z"/>
		<path class="st0" d="M228.3,86.6L228.3,86.6c-0.3,0.4-0.6,0.7-1,0.9c-0.4,0.2-0.8,0.3-1.2,0.3c-0.4,0-0.8-0.1-1.2-0.3
			s-0.7-0.5-1-0.9c-0.3-0.4-0.5-1-0.7-1.7c-0.2-0.7-0.2-1.6-0.2-2.6s0.1-1.9,0.2-2.6c0.2-0.7,0.4-1.3,0.7-1.7c0.3-0.4,0.6-0.7,1-0.9
			c0.4-0.2,0.8-0.3,1.2-0.3c0.4,0,0.8,0.1,1.1,0.3c0.3,0.2,0.6,0.4,0.9,0.7V73h1.5v11.8c0,0.7,0,1.3,0.1,1.7c0,0.4,0.1,0.8,0.2,1.1
			h-1.4L228.3,86.6z M228,79c-0.2-0.2-0.5-0.4-0.7-0.6c-0.3-0.2-0.5-0.3-0.9-0.3c-0.3,0-0.6,0.1-0.8,0.2c-0.2,0.1-0.4,0.4-0.6,0.7
			c-0.2,0.3-0.3,0.8-0.4,1.3c-0.1,0.5-0.1,1.2-0.1,2c0,0.8,0,1.5,0.1,2c0.1,0.5,0.2,1,0.4,1.3s0.4,0.6,0.6,0.7
			c0.2,0.1,0.5,0.2,0.8,0.2c0.2,0,0.5-0.1,0.8-0.3c0.3-0.2,0.5-0.4,0.8-0.7V79z"/>
		<path class="st0" d="M233.3,82.6v0.6c0,0.7,0,1.2,0.1,1.6c0.1,0.4,0.2,0.8,0.4,1.1c0.2,0.3,0.4,0.5,0.6,0.6
			c0.2,0.1,0.5,0.2,0.9,0.2c0.3,0,0.5-0.1,0.7-0.2c0.2-0.1,0.4-0.3,0.5-0.5c0.1-0.2,0.3-0.4,0.3-0.6c0.1-0.2,0.2-0.5,0.2-0.7
			l1.4,0.2c-0.1,0.4-0.2,0.8-0.3,1.1s-0.4,0.7-0.7,1c-0.3,0.3-0.6,0.5-1,0.7s-0.8,0.3-1.3,0.3c-1.1,0-1.9-0.4-2.4-1.3
			c-0.5-0.9-0.8-2.3-0.8-4.2c0-1.9,0.3-3.3,0.8-4.2c0.5-0.9,1.3-1.3,2.4-1.3c0.6,0,1,0.1,1.4,0.4c0.4,0.2,0.7,0.6,1,1
			c0.3,0.4,0.5,1,0.6,1.6c0.1,0.6,0.2,1.3,0.2,2.1v0.7H233.3z M236.8,81.4c0-1.1-0.2-2-0.4-2.5s-0.7-0.8-1.4-0.8
			c-0.3,0-0.5,0.1-0.7,0.2c-0.2,0.1-0.4,0.3-0.5,0.5c-0.2,0.3-0.3,0.6-0.4,1c-0.1,0.4-0.1,1-0.1,1.6H236.8z"/>
		<path class="st0" d="M240.4,77.1h1.4v1.2c0.4-0.4,0.8-0.7,1.2-0.9c0.4-0.3,0.8-0.4,1.2-0.4c0.7,0,1.3,0.2,1.7,0.7
			c0.4,0.4,0.6,1.1,0.6,2.1v8h-1.5v-7.8c0-0.6-0.1-1.1-0.3-1.3c-0.2-0.3-0.5-0.4-0.9-0.4c-0.4,0-0.7,0.1-1,0.3c-0.3,0.2-0.7,0.5-1,1
			v8.2h-1.5V77.1z"/>
		<path class="st0" d="M248.2,77.1h1.4v-3.5h1.5v3.5h1.9v1.2H251v7.4c0,0.3,0.1,0.6,0.3,0.8c0.2,0.2,0.4,0.3,0.8,0.3
			c0.1,0,0.3,0,0.5-0.1s0.3-0.1,0.4-0.1v1.1c-0.2,0.1-0.4,0.1-0.6,0.2c-0.2,0-0.5,0.1-0.8,0.1c-0.7,0-1.2-0.2-1.5-0.5
			c-0.3-0.4-0.5-0.9-0.5-1.7v-7.3h-1.4V77.1z"/>
		<path class="st0" d="M255.2,73h1.5v1.7h-1.5V73z M255.2,77.1h1.5v10.6h-1.5V77.1z"/>
		<path class="st0" d="M263.7,79.8c-0.1-0.2-0.1-0.4-0.2-0.7c-0.1-0.2-0.2-0.4-0.3-0.5c-0.1-0.1-0.3-0.3-0.5-0.4
			c-0.2-0.1-0.5-0.1-0.8-0.1c-0.4,0-0.6,0.1-0.9,0.4c-0.2,0.2-0.3,0.5-0.3,0.9c0,0.4,0.1,0.7,0.3,0.9c0.2,0.3,0.5,0.5,0.8,0.7
			c0.3,0.2,0.7,0.5,1.1,0.7c0.4,0.2,0.8,0.5,1.1,0.8c0.3,0.3,0.6,0.6,0.8,1s0.3,0.9,0.3,1.4c0,0.4-0.1,0.8-0.2,1.2
			c-0.1,0.4-0.3,0.7-0.6,0.9c-0.3,0.3-0.6,0.5-0.9,0.6c-0.4,0.1-0.7,0.2-1.2,0.2c-1,0-1.7-0.2-2.2-0.7c-0.5-0.5-0.9-1.2-1.2-2.1
			l1.3-0.3c0.1,0.2,0.2,0.5,0.3,0.7c0.1,0.2,0.2,0.4,0.4,0.6c0.2,0.2,0.3,0.3,0.5,0.4c0.2,0.1,0.4,0.2,0.7,0.2c0.2,0,0.4,0,0.6-0.1
			c0.2-0.1,0.3-0.2,0.5-0.3c0.1-0.1,0.3-0.3,0.3-0.5c0.1-0.2,0.1-0.4,0.1-0.6c0-0.4-0.1-0.8-0.3-1c-0.2-0.3-0.5-0.6-0.8-0.8
			c-0.3-0.2-0.7-0.5-1.1-0.7c-0.4-0.2-0.8-0.5-1.1-0.8c-0.3-0.3-0.6-0.6-0.8-1c-0.2-0.4-0.3-0.8-0.3-1.3c0-0.3,0.1-0.7,0.2-1
			c0.1-0.3,0.3-0.6,0.6-0.8c0.2-0.2,0.5-0.4,0.9-0.6c0.3-0.1,0.7-0.2,1.1-0.2c0.8,0,1.5,0.2,1.9,0.7c0.5,0.4,0.8,1.1,1,1.9
			L263.7,79.8z"/>
		<path class="st0" d="M266.2,77.1h1.4v-3.5h1.5v3.5h1.9v1.2h-1.9v7.4c0,0.3,0.1,0.6,0.3,0.8c0.2,0.2,0.4,0.3,0.8,0.3
			c0.1,0,0.3,0,0.5-0.1c0.2,0,0.3-0.1,0.4-0.1v1.1c-0.2,0.1-0.4,0.1-0.6,0.2c-0.2,0-0.5,0.1-0.8,0.1c-0.7,0-1.2-0.2-1.5-0.5
			c-0.3-0.4-0.5-0.9-0.5-1.7v-7.3h-1.4V77.1z"/>
		<path class="st0" d="M273,77.1h1.5v1.3h0c0.2-0.3,0.4-0.6,0.6-0.8c0.2-0.2,0.4-0.3,0.6-0.4c0.2-0.1,0.4-0.2,0.7-0.2
			s0.5-0.1,0.8-0.1v1.4c-0.3,0-0.5,0-0.8,0.1c-0.2,0.1-0.5,0.2-0.7,0.3c-0.2,0.1-0.4,0.3-0.6,0.6c-0.2,0.2-0.4,0.5-0.6,0.9v7.5H273
			V77.1z"/>
		<path class="st0" d="M278.9,77.1l2,8.1h0l1.6-8.1h1.5l-2.4,10.3c-0.3,1.2-0.7,2.1-1.2,2.7c-0.5,0.6-1.2,1-2.1,1h-0.8v-1.2h0.4
			c0.6,0,1.1-0.2,1.4-0.6c0.4-0.4,0.6-1,0.8-1.7l-2.8-10.5H278.9z"/>
		<path class="st0" d="M286.5,85.7v1.9h-1.7v-1.9H286.5z"/>
		<path class="st0" d="M299.7,77.4c-0.1-1.2-0.3-2-0.7-2.5c-0.4-0.5-0.8-0.8-1.5-0.8c-0.5,0-0.9,0.1-1.2,0.3
			c-0.3,0.2-0.6,0.6-0.8,1.1c-0.2,0.5-0.4,1.1-0.5,1.9c-0.1,0.8-0.2,1.8-0.2,2.9s0.1,2.1,0.2,2.9c0.1,0.8,0.3,1.4,0.5,1.9
			c0.2,0.5,0.5,0.8,0.8,1.1c0.3,0.2,0.7,0.3,1.2,0.3c0.4,0,0.7-0.1,1-0.2c0.3-0.1,0.5-0.4,0.7-0.6c0.2-0.3,0.4-0.7,0.5-1.2
			c0.1-0.5,0.2-1,0.2-1.7h1.6c0,1.6-0.4,2.9-1.1,3.8c-0.7,0.9-1.6,1.3-2.9,1.3c-0.7,0-1.2-0.1-1.8-0.4c-0.5-0.3-1-0.7-1.3-1.3
			c-0.4-0.6-0.6-1.4-0.8-2.3c-0.2-1-0.3-2.1-0.3-3.5c0-1.4,0.1-2.6,0.3-3.5c0.2-1,0.5-1.7,0.8-2.3c0.4-0.6,0.8-1,1.3-1.3
			c0.5-0.3,1.1-0.4,1.8-0.4c1.1,0,2,0.4,2.6,1.1c0.6,0.8,1,1.9,1.1,3.5H299.7z"/>
		<path class="st0" d="M303.2,82.4c0-1.9,0.3-3.3,0.8-4.2c0.5-0.9,1.3-1.3,2.4-1.3c1.1,0,1.9,0.4,2.4,1.3c0.5,0.9,0.8,2.3,0.8,4.2
			c0,1.9-0.3,3.3-0.8,4.2c-0.5,0.9-1.3,1.3-2.4,1.3c-1.1,0-1.9-0.4-2.4-1.3C303.5,85.7,303.2,84.3,303.2,82.4z M304.7,82.4
			c0,0.9,0,1.6,0.1,2.1c0.1,0.5,0.2,1,0.3,1.3c0.1,0.3,0.3,0.5,0.5,0.7c0.2,0.1,0.5,0.2,0.8,0.2c0.3,0,0.6-0.1,0.8-0.2
			c0.2-0.1,0.4-0.3,0.5-0.7c0.1-0.3,0.2-0.8,0.3-1.3c0.1-0.5,0.1-1.3,0.1-2.1c0-0.9,0-1.6-0.1-2.1c-0.1-0.6-0.2-1-0.3-1.3
			c-0.1-0.3-0.3-0.5-0.5-0.6c-0.2-0.1-0.5-0.2-0.8-0.2c-0.3,0-0.6,0.1-0.8,0.2c-0.2,0.1-0.4,0.3-0.5,0.6c-0.1,0.3-0.2,0.8-0.3,1.3
			C304.7,80.8,304.7,81.5,304.7,82.4z"/>
		<path class="st0" d="M312,87.6V77.1h1.3v1.2c0.3-0.3,0.6-0.7,1.1-0.9c0.4-0.3,0.9-0.4,1.4-0.4c0.4,0,0.8,0.1,1.2,0.4
			c0.4,0.2,0.6,0.6,0.7,1c0.3-0.3,0.7-0.6,1.1-0.9c0.4-0.3,0.9-0.4,1.4-0.4c0.7,0,1.2,0.2,1.6,0.7c0.4,0.4,0.5,1,0.5,1.8v8.3h-1.5
			v-8.1c0-0.6-0.1-0.9-0.3-1.1c-0.2-0.2-0.5-0.3-0.8-0.3c-0.4,0-0.8,0.1-1.1,0.4c-0.3,0.3-0.5,0.5-0.8,0.7v8.4h-1.5v-8.1
			c0-0.6-0.1-0.9-0.3-1.1c-0.2-0.2-0.5-0.3-0.9-0.3c-0.2,0-0.4,0-0.6,0.1c-0.2,0.1-0.3,0.2-0.5,0.3c-0.1,0.1-0.3,0.2-0.4,0.4
			c-0.1,0.1-0.2,0.3-0.3,0.4v8.4H312z"/>
		<path class="st0" d="M326.8,78.1L326.8,78.1c0.3-0.4,0.6-0.7,0.9-0.9c0.4-0.2,0.8-0.3,1.2-0.3c0.4,0,0.8,0.1,1.2,0.3
			c0.4,0.2,0.7,0.5,1,0.9c0.3,0.4,0.5,1,0.7,1.7c0.2,0.7,0.2,1.6,0.2,2.6s-0.1,1.9-0.2,2.6c-0.2,0.7-0.4,1.3-0.7,1.7
			c-0.3,0.4-0.6,0.7-1,0.9c-0.4,0.2-0.8,0.3-1.2,0.3c-0.4,0-0.8-0.1-1.1-0.3c-0.3-0.2-0.6-0.4-0.9-0.7v4.2h-1.5v-14h1.2V78.1z
			 M327,85.7c0.2,0.2,0.5,0.4,0.7,0.6c0.3,0.2,0.5,0.3,0.9,0.3c0.3,0,0.6-0.1,0.8-0.2c0.2-0.1,0.4-0.4,0.6-0.7
			c0.2-0.3,0.3-0.8,0.4-1.3c0.1-0.5,0.1-1.2,0.1-2c0-0.8,0-1.5-0.1-2c-0.1-0.5-0.2-1-0.4-1.3s-0.4-0.6-0.6-0.7
			c-0.2-0.1-0.5-0.2-0.8-0.2c-0.2,0-0.5,0.1-0.8,0.3c-0.3,0.2-0.5,0.4-0.8,0.7V85.7z"/>
		<path class="st0" d="M334.2,80c0.1-0.4,0.2-0.8,0.3-1.2c0.2-0.4,0.4-0.7,0.6-1c0.3-0.3,0.6-0.5,0.9-0.7c0.4-0.2,0.8-0.2,1.2-0.2
			c1,0,1.7,0.3,2.2,0.8c0.5,0.5,0.8,1.3,0.8,2.2v5.9c0,0.5,0,0.9,0.1,1.2c0,0.3,0.1,0.5,0.2,0.7h-1.5l-0.2-0.9
			c-0.1,0.1-0.3,0.3-0.5,0.4c-0.2,0.1-0.4,0.2-0.6,0.3c-0.2,0.1-0.4,0.2-0.6,0.2c-0.2,0.1-0.4,0.1-0.5,0.1c-0.8,0-1.5-0.2-2-0.7
			s-0.8-1.1-0.8-2c0-0.7,0.2-1.2,0.5-1.7c0.3-0.5,0.7-0.9,1.2-1.3c0.5-0.4,1-0.7,1.6-0.9c0.6-0.2,1.1-0.4,1.7-0.5V80
			c0-0.6-0.1-1-0.4-1.4c-0.3-0.3-0.6-0.5-1.1-0.5c-0.3,0-0.5,0.1-0.7,0.2c-0.2,0.1-0.4,0.3-0.5,0.5c-0.1,0.2-0.3,0.4-0.4,0.7
			c-0.1,0.2-0.2,0.5-0.2,0.7L334.2,80z M338.9,82c-0.3,0.1-0.7,0.2-1.1,0.4s-0.8,0.4-1.1,0.6c-0.4,0.3-0.7,0.5-0.9,0.9
			c-0.2,0.3-0.4,0.7-0.4,1.1c0,0.5,0.1,0.9,0.4,1.2s0.6,0.4,1.1,0.4c0.4,0,0.8-0.1,1.1-0.3c0.3-0.2,0.6-0.5,0.9-0.8V82z"/>
		<path class="st0" d="M347.5,79.8c-0.1-0.2-0.1-0.4-0.2-0.7c-0.1-0.2-0.2-0.4-0.3-0.5c-0.1-0.1-0.3-0.3-0.5-0.4
			c-0.2-0.1-0.5-0.1-0.8-0.1c-0.4,0-0.6,0.1-0.9,0.4c-0.2,0.2-0.3,0.5-0.3,0.9c0,0.4,0.1,0.7,0.3,0.9c0.2,0.3,0.5,0.5,0.8,0.7
			c0.3,0.2,0.7,0.5,1.1,0.7c0.4,0.2,0.8,0.5,1.1,0.8c0.3,0.3,0.6,0.6,0.8,1s0.3,0.9,0.3,1.4c0,0.4-0.1,0.8-0.2,1.2
			c-0.1,0.4-0.3,0.7-0.6,0.9c-0.3,0.3-0.6,0.5-0.9,0.6c-0.4,0.1-0.7,0.2-1.2,0.2c-1,0-1.7-0.2-2.2-0.7c-0.5-0.5-0.9-1.2-1.2-2.1
			l1.3-0.3c0.1,0.2,0.2,0.5,0.3,0.7c0.1,0.2,0.2,0.4,0.4,0.6c0.2,0.2,0.3,0.3,0.5,0.4c0.2,0.1,0.4,0.2,0.7,0.2c0.2,0,0.4,0,0.6-0.1
			c0.2-0.1,0.3-0.2,0.5-0.3c0.1-0.1,0.3-0.3,0.3-0.5c0.1-0.2,0.1-0.4,0.1-0.6c0-0.4-0.1-0.8-0.3-1c-0.2-0.3-0.5-0.6-0.8-0.8
			c-0.3-0.2-0.7-0.5-1.1-0.7c-0.4-0.2-0.8-0.5-1.1-0.8c-0.3-0.3-0.6-0.6-0.8-1c-0.2-0.4-0.3-0.8-0.3-1.3c0-0.3,0.1-0.7,0.2-1
			c0.1-0.3,0.3-0.6,0.6-0.8c0.2-0.2,0.5-0.4,0.9-0.6c0.3-0.1,0.7-0.2,1.1-0.2c0.8,0,1.5,0.2,1.9,0.7c0.5,0.4,0.8,1.1,1,1.9
			L347.5,79.8z"/>
		<path class="st0" d="M355.4,79.8c-0.1-0.2-0.1-0.4-0.2-0.7c-0.1-0.2-0.2-0.4-0.3-0.5c-0.1-0.1-0.3-0.3-0.5-0.4
			c-0.2-0.1-0.5-0.1-0.8-0.1c-0.4,0-0.6,0.1-0.9,0.4c-0.2,0.2-0.3,0.5-0.3,0.9c0,0.4,0.1,0.7,0.3,0.9c0.2,0.3,0.5,0.5,0.8,0.7
			c0.3,0.2,0.7,0.5,1.1,0.7c0.4,0.2,0.8,0.5,1.1,0.8c0.3,0.3,0.6,0.6,0.8,1c0.2,0.4,0.3,0.9,0.3,1.4c0,0.4-0.1,0.8-0.2,1.2
			c-0.1,0.4-0.3,0.7-0.6,0.9c-0.3,0.3-0.6,0.5-0.9,0.6c-0.4,0.1-0.7,0.2-1.2,0.2c-1,0-1.7-0.2-2.2-0.7s-0.9-1.2-1.2-2.1l1.3-0.3
			c0.1,0.2,0.2,0.5,0.3,0.7c0.1,0.2,0.2,0.4,0.4,0.6c0.2,0.2,0.3,0.3,0.5,0.4c0.2,0.1,0.4,0.2,0.7,0.2c0.2,0,0.4,0,0.6-0.1
			c0.2-0.1,0.3-0.2,0.5-0.3c0.1-0.1,0.3-0.3,0.3-0.5c0.1-0.2,0.1-0.4,0.1-0.6c0-0.4-0.1-0.8-0.3-1c-0.2-0.3-0.5-0.6-0.8-0.8
			c-0.3-0.2-0.7-0.5-1.1-0.7s-0.8-0.5-1.1-0.8c-0.3-0.3-0.6-0.6-0.8-1c-0.2-0.4-0.3-0.8-0.3-1.3c0-0.3,0.1-0.7,0.2-1
			c0.1-0.3,0.3-0.6,0.6-0.8c0.2-0.2,0.5-0.4,0.9-0.6c0.3-0.1,0.7-0.2,1.1-0.2c0.8,0,1.5,0.2,1.9,0.7c0.5,0.4,0.8,1.1,1,1.9
			L355.4,79.8z"/>
		<path class="st0" d="M359.3,73h1.5v1.7h-1.5V73z M359.3,77.1h1.5v10.6h-1.5V77.1z"/>
		<path class="st0" d="M363,82.4c0-1.9,0.3-3.3,0.8-4.2c0.5-0.9,1.3-1.3,2.4-1.3s1.9,0.4,2.4,1.3c0.5,0.9,0.8,2.3,0.8,4.2
			c0,1.9-0.3,3.3-0.8,4.2c-0.5,0.9-1.3,1.3-2.4,1.3s-1.9-0.4-2.4-1.3C363.3,85.7,363,84.3,363,82.4z M364.5,82.4
			c0,0.9,0,1.6,0.1,2.1c0.1,0.5,0.2,1,0.3,1.3c0.1,0.3,0.3,0.5,0.5,0.7c0.2,0.1,0.5,0.2,0.8,0.2s0.6-0.1,0.8-0.2
			c0.2-0.1,0.4-0.3,0.5-0.7c0.1-0.3,0.2-0.8,0.3-1.3c0.1-0.5,0.1-1.3,0.1-2.1c0-0.9,0-1.6-0.1-2.1c-0.1-0.6-0.2-1-0.3-1.3
			c-0.1-0.3-0.3-0.5-0.5-0.6c-0.2-0.1-0.5-0.2-0.8-0.2s-0.6,0.1-0.8,0.2c-0.2,0.1-0.4,0.3-0.5,0.6c-0.1,0.3-0.2,0.8-0.3,1.3
			C364.5,80.8,364.5,81.5,364.5,82.4z"/>
		<path class="st0" d="M371.6,77.1h1.4v1.2c0.4-0.4,0.8-0.7,1.2-0.9c0.4-0.3,0.8-0.4,1.2-0.4c0.7,0,1.3,0.2,1.7,0.7
			c0.4,0.4,0.6,1.1,0.6,2.1v8h-1.5v-7.8c0-0.6-0.1-1.1-0.3-1.3c-0.2-0.3-0.5-0.4-0.9-0.4c-0.4,0-0.7,0.1-1,0.3c-0.3,0.2-0.7,0.5-1,1
			v8.2h-1.5V77.1z"/>
		<path class="st0" d="M384.1,77.1h1.6v-2.2c0-0.7,0.2-1.3,0.5-1.6c0.3-0.4,0.9-0.5,1.7-0.5c0.2,0,0.4,0,0.6,0
			c0.2,0,0.4,0.1,0.6,0.1V74c-0.2-0.1-0.5-0.2-0.8-0.2c-0.4,0-0.6,0.1-0.8,0.3c-0.2,0.2-0.3,0.5-0.3,0.8v2.1h1.7v1.2h-1.7v9.3h-1.5
			v-9.3h-1.6V77.1z"/>
		<path class="st0" d="M390.1,82.4c0-1.9,0.3-3.3,0.8-4.2c0.5-0.9,1.3-1.3,2.4-1.3c1.1,0,1.9,0.4,2.4,1.3c0.5,0.9,0.8,2.3,0.8,4.2
			c0,1.9-0.3,3.3-0.8,4.2c-0.5,0.9-1.3,1.3-2.4,1.3c-1.1,0-1.9-0.4-2.4-1.3C390.3,85.7,390.1,84.3,390.1,82.4z M391.5,82.4
			c0,0.9,0,1.6,0.1,2.1c0.1,0.5,0.2,1,0.3,1.3c0.1,0.3,0.3,0.5,0.5,0.7c0.2,0.1,0.5,0.2,0.8,0.2c0.3,0,0.6-0.1,0.8-0.2
			c0.2-0.1,0.4-0.3,0.5-0.7c0.1-0.3,0.2-0.8,0.3-1.3c0.1-0.5,0.1-1.3,0.1-2.1c0-0.9,0-1.6-0.1-2.1c-0.1-0.6-0.2-1-0.3-1.3
			c-0.1-0.3-0.3-0.5-0.5-0.6c-0.2-0.1-0.5-0.2-0.8-0.2c-0.3,0-0.6,0.1-0.8,0.2c-0.2,0.1-0.4,0.3-0.5,0.6c-0.1,0.3-0.2,0.8-0.3,1.3
			C391.6,80.8,391.5,81.5,391.5,82.4z"/>
		<path class="st0" d="M398.6,77.1h1.5v1.3h0c0.2-0.3,0.4-0.6,0.6-0.8c0.2-0.2,0.4-0.3,0.6-0.4c0.2-0.1,0.4-0.2,0.7-0.2
			s0.5-0.1,0.8-0.1v1.4c-0.3,0-0.5,0-0.8,0.1c-0.2,0.1-0.5,0.2-0.7,0.3c-0.2,0.1-0.4,0.3-0.6,0.6c-0.2,0.2-0.4,0.5-0.6,0.9v7.5h-1.5
			V77.1z"/>
		<path class="st0" d="M408.9,77.1l2,8.1h0l1.6-8.1h1.5l-2.4,10.3c-0.3,1.2-0.7,2.1-1.2,2.7c-0.5,0.6-1.2,1-2.1,1h-0.8v-1.2h0.4
			c0.6,0,1.1-0.2,1.4-0.6c0.4-0.4,0.6-1,0.8-1.7l-2.8-10.5H408.9z"/>
		<path class="st0" d="M414.9,82.4c0-1.9,0.3-3.3,0.8-4.2c0.5-0.9,1.3-1.3,2.4-1.3c1.1,0,1.9,0.4,2.4,1.3c0.5,0.9,0.8,2.3,0.8,4.2
			c0,1.9-0.3,3.3-0.8,4.2c-0.5,0.9-1.3,1.3-2.4,1.3c-1.1,0-1.9-0.4-2.4-1.3C415.1,85.7,414.9,84.3,414.9,82.4z M416.3,82.4
			c0,0.9,0,1.6,0.1,2.1c0.1,0.5,0.2,1,0.3,1.3c0.1,0.3,0.3,0.5,0.5,0.7c0.2,0.1,0.5,0.2,0.8,0.2c0.3,0,0.6-0.1,0.8-0.2
			c0.2-0.1,0.4-0.3,0.5-0.7c0.1-0.3,0.2-0.8,0.3-1.3c0.1-0.5,0.1-1.3,0.1-2.1c0-0.9,0-1.6-0.1-2.1c-0.1-0.6-0.2-1-0.3-1.3
			c-0.1-0.3-0.3-0.5-0.5-0.6c-0.2-0.1-0.5-0.2-0.8-0.2c-0.3,0-0.6,0.1-0.8,0.2c-0.2,0.1-0.4,0.3-0.5,0.6c-0.1,0.3-0.2,0.8-0.3,1.3
			C416.4,80.8,416.3,81.5,416.3,82.4z"/>
		<path class="st0" d="M429.6,87.6h-1.4v-1.2c-0.4,0.4-0.8,0.7-1.2,0.9c-0.4,0.3-0.8,0.4-1.2,0.4c-0.7,0-1.3-0.2-1.7-0.7
			c-0.4-0.4-0.6-1.1-0.6-2.1v-8h1.5v7.8c0,0.6,0.1,1.1,0.3,1.3c0.2,0.3,0.5,0.4,0.9,0.4c0.4,0,0.7-0.1,1-0.3s0.7-0.5,1-1v-8.2h1.5
			V87.6z"/>
		<path class="st0" d="M434.2,85.7v1.9h-1.7v-1.9H434.2z"/>
	</g>
	<g>
		<g>
			<g>
				<path class="st1" d="M128.1,37.5l-0.2,7.4h-21.3v-0.8h0.7c1.1,0,1.8-0.1,2.2-0.4c0.4-0.3,0.7-0.7,0.8-1.3c0.1-0.6,0.2-1.9,0.2-4
					V26.1c0-2-0.1-3.3-0.2-3.9c-0.1-0.6-0.4-1-0.7-1.2c-0.4-0.2-1.2-0.3-2.5-0.3h-0.6v-0.8h12v0.8h-1.1c-1.2,0-2,0.1-2.4,0.3
					c-0.4,0.2-0.6,0.6-0.8,1.1c-0.1,0.6-0.2,1.9-0.2,4v13.1c0,1.8,0,2.9,0.1,3.4c0.1,0.5,0.4,0.8,0.8,1.1c0.4,0.3,1.4,0.4,2.8,0.4
					h1.9c1.5,0,2.7-0.1,3.4-0.4c0.7-0.3,1.5-0.9,2.1-1.8c0.7-0.9,1.3-2.4,1.8-4.3H128.1z"/>
				<path class="st1" d="M131.7,37.3c0-2.3,0.8-4.3,2.3-5.8c1.6-1.6,3.5-2.3,5.7-2.3c2.3,0,4.2,0.8,5.7,2.3c1.6,1.6,2.3,3.5,2.3,5.8
					c0,2.6-0.8,4.6-2.4,6c-1.6,1.5-3.5,2.2-5.7,2.2s-4.1-0.7-5.7-2.2C132.5,41.8,131.7,39.8,131.7,37.3z M134.8,37.4
					c0,2.7,0.4,4.6,1.3,5.6c0.9,1.1,2.1,1.6,3.7,1.6c1.6,0,2.8-0.5,3.7-1.6c0.9-1.1,1.3-3,1.3-5.6c0-2.7-0.4-4.6-1.3-5.7
					c-0.9-1.1-2.1-1.7-3.7-1.7c-1.6,0-2.8,0.6-3.7,1.7C135.2,32.8,134.8,34.7,134.8,37.4z"/>
				<path class="st1" d="M167.6,29.8v9.9c0,1.7,0,2.7,0.1,3.1c0,0.4,0.2,0.7,0.5,0.9c0.3,0.2,0.9,0.3,1.7,0.3v0.8
					c-1.9,0-3.2,0.2-4.1,0.6h-0.2c-0.4-0.7-0.6-1.8-0.6-3.5c-0.8,1.2-1.6,2.1-2.6,2.6c-1,0.6-2,0.9-3.2,0.9c-1,0-1.9-0.2-2.7-0.7
					c-0.8-0.5-1.3-1-1.6-1.7c-0.3-0.7-0.4-1.7-0.4-3V35c0-1.8,0-2.8-0.1-3.2c-0.1-0.4-0.3-0.7-0.6-0.9c-0.3-0.2-0.9-0.3-1.8-0.3
					v-0.8h5.1v10.5c0,1,0.1,1.8,0.2,2.3c0.1,0.5,0.4,0.9,0.9,1.2c0.5,0.4,1.1,0.5,1.8,0.5c0.9,0,1.9-0.3,2.7-0.9
					c0.9-0.6,1.5-1.3,1.8-2c0.3-0.7,0.5-1.7,0.5-3V35c0-1.7,0-2.7-0.1-3c0-0.4-0.2-0.7-0.5-0.9c-0.3-0.3-0.9-0.4-1.7-0.4h-0.4v-0.8
					H167.6z"/>
				<path class="st1" d="M178.9,29.2v10.6c0,1.6,0,2.6,0.1,3.1c0,0.4,0.2,0.7,0.5,1c0.3,0.2,0.9,0.3,1.6,0.3h0.4v0.8h-8.2v-0.8h0.6
					c0.9,0,1.4-0.1,1.7-0.4s0.4-0.6,0.5-0.9c0-0.4,0.1-1.4,0.1-3.1v-4.6c0-1.8-0.1-2.9-0.2-3.3c-0.2-0.4-0.4-0.6-0.7-0.7
					c-0.3-0.1-0.8-0.1-1.5-0.1h-0.5v-0.8c2.2-0.2,3.9-0.5,5.1-1H178.9z M175.3,21.4c0-0.5,0.2-1,0.6-1.4c0.4-0.4,0.8-0.6,1.4-0.6
					c0.5,0,1,0.2,1.3,0.6c0.4,0.4,0.6,0.8,0.6,1.4c0,0.5-0.2,1-0.6,1.4c-0.4,0.4-0.8,0.6-1.3,0.6c-0.5,0-1-0.2-1.4-0.6
					C175.5,22.4,175.3,22,175.3,21.4z"/>
				<path class="st1" d="M185.6,45.4v-5h0.7c0.8,2.9,2.3,4.3,4.5,4.3c0.9,0,1.6-0.3,2.1-0.8c0.5-0.6,0.7-1.2,0.7-1.9
					c0-0.8-0.2-1.4-0.7-1.9c-0.5-0.5-1.5-1.1-2.9-1.8c-1.5-0.8-2.6-1.5-3.3-2.2c-0.7-0.7-1-1.6-1-2.6c0-1,0.4-1.9,1.1-2.9
					c0.7-0.9,1.7-1.4,3-1.4c1.3,0,2.4,0.5,3.3,1.6c0.2-0.2,0.4-0.6,0.7-1.3h0.7v4.7h-0.7c-0.2-1.1-0.7-2.1-1.4-2.9
					c-0.7-0.8-1.5-1.2-2.5-1.2c-0.7,0-1.3,0.2-1.8,0.7c-0.5,0.5-0.7,1-0.7,1.6c0,0.7,0.3,1.2,0.8,1.7c0.5,0.5,1.4,1.1,2.8,1.7
					c2.1,0.9,3.4,1.9,3.8,2.8c0.5,0.9,0.7,1.8,0.7,2.6c0,1.3-0.4,2.4-1.3,3.2c-0.9,0.8-2,1.2-3.3,1.2c-1.4,0-2.6-0.6-3.7-1.7
					c-0.3,0.4-0.6,0.9-0.8,1.6H185.6z"/>
				<path class="st1" d="M213.7,34.9h-10.6c0,0.7-0.1,1.3-0.1,1.6c0,2.7,0.4,4.7,1.2,6c0.8,1.3,2.1,2,3.7,2c2.2,0,3.8-1,4.8-3h0.9
					c-0.4,1.3-1.2,2.2-2.3,2.9c-1.2,0.7-2.4,1.1-3.8,1.1c-1.3,0-2.5-0.3-3.6-1c-1.1-0.6-2.1-1.6-2.8-2.7c-0.7-1.2-1.1-2.6-1.1-4.3
					c0-2.4,0.7-4.4,2.1-6c1.4-1.6,3.2-2.4,5.3-2.4c2,0,3.5,0.6,4.6,1.8C213.1,32.2,213.7,33.5,213.7,34.9z M210.5,34.1
					c0-0.3,0.1-0.5,0.1-0.8c0-1.1-0.3-1.9-1-2.5c-0.6-0.6-1.4-0.9-2.3-0.9c-2.2,0-3.6,1.4-4,4.2H210.5z"/>
				<path class="st1" d="M256,44.9h-6.7c-1.2-0.8-3-3-5.5-6.6c-0.8-1.1-1.6-2.2-2.5-3.3c-0.8-1-1.4-1.7-1.8-1.9
					c-0.3-0.2-0.8-0.3-1.5-0.3h-1v5.6c0,2,0,3.3,0.1,3.9c0.1,0.6,0.3,1.1,0.7,1.4c0.4,0.3,1.2,0.4,2.3,0.4h1.2v0.8h-12v-0.8h0.8
					c1.1,0,1.8-0.1,2.2-0.4c0.4-0.3,0.7-0.7,0.8-1.3c0.1-0.6,0.2-1.9,0.2-4V26.1c0-2-0.1-3.3-0.2-3.9c-0.1-0.6-0.4-1-0.7-1.2
					c-0.4-0.2-1.2-0.3-2.5-0.3h-0.4v-0.8l3.6-0.2c2.4-0.1,4.3-0.2,5.7-0.2c2.4,0,4.3,0.2,5.8,0.7c1.5,0.4,2.7,1.2,3.6,2.2
					c0.9,1,1.4,2.2,1.4,3.6c0,1.6-0.6,3-1.8,4.2c-1.2,1.2-3,1.9-5.3,2.2c1,0.5,2.7,2.3,5.1,5.5c1.9,2.6,3.4,4.2,4.5,5
					c1.1,0.8,2.4,1.2,3.8,1.3V44.9z M237,32c0.9,0,1.9-0.1,2.9-0.1c1,0,1.8-0.2,2.6-0.4c0.7-0.2,1.3-0.5,1.8-1
					c0.4-0.4,0.8-1,1.1-1.7s0.4-1.5,0.4-2.6c0-1.8-0.4-3.2-1.3-4.2s-2.8-1.6-5.8-1.6c-0.5,0-1,0-1.6,0.1V32z"/>
				<path class="st1" d="M289.8,19.8l0.2,6.2h-0.9c-0.2-1.4-0.6-2.5-1.2-3.4c-0.6-0.9-1.2-1.4-1.9-1.7c-0.7-0.2-1.8-0.3-3.3-0.3
					h-4.9v10.6h2.3c1.5,0,2.5-0.3,3-0.8c0.5-0.5,0.7-1.5,0.7-3.1h0.9v8.8H284c0-1.1-0.1-1.9-0.3-2.5c-0.2-0.6-0.5-1-1-1.3
					c-0.4-0.2-1.3-0.3-2.5-0.3h-2.3v6.2c0,2,0,3.3,0.1,3.9c0.1,0.6,0.3,1.1,0.7,1.4c0.4,0.3,1.2,0.4,2.3,0.4h0.8v0.8h-11.6v-0.8h0.8
					c1.1,0,1.8-0.1,2.2-0.4c0.4-0.3,0.7-0.7,0.8-1.3c0.1-0.6,0.2-1.9,0.2-4V26.1c0-2-0.1-3.3-0.2-3.9c-0.1-0.6-0.4-1-0.7-1.2
					c-0.4-0.2-1.2-0.3-2.5-0.3h-0.4v-0.8H289.8z"/>
				<path class="st1" d="M298.2,29.2v10.6c0,1.6,0,2.6,0.1,3.1c0.1,0.4,0.2,0.7,0.5,1c0.3,0.2,0.9,0.3,1.6,0.3h0.4v0.8h-8.2v-0.8
					h0.6c0.9,0,1.4-0.1,1.7-0.4c0.3-0.3,0.4-0.6,0.5-0.9c0-0.4,0.1-1.4,0.1-3.1v-4.6c0-1.8-0.1-2.9-0.2-3.3
					c-0.2-0.4-0.4-0.6-0.7-0.7c-0.3-0.1-0.8-0.1-1.5-0.1h-0.5v-0.8c2.2-0.2,3.9-0.5,5.1-1H298.2z M294.6,21.4c0-0.5,0.2-1,0.6-1.4
					c0.4-0.4,0.8-0.6,1.4-0.6s1,0.2,1.3,0.6c0.4,0.4,0.6,0.8,0.6,1.4c0,0.5-0.2,1-0.6,1.4c-0.4,0.4-0.8,0.6-1.3,0.6s-1-0.2-1.4-0.6
					C294.8,22.4,294.6,22,294.6,21.4z"/>
				<path class="st1" d="M309.8,33c0.4-1.1,1.1-2,2-2.8c0.9-0.7,1.9-1.1,2.8-1.1c0.8,0,1.5,0.3,1.9,0.8c0.5,0.5,0.7,1,0.7,1.6
					c0,0.4-0.1,0.7-0.4,0.9c-0.2,0.3-0.5,0.4-0.9,0.4c-0.6,0-1.1-0.5-1.4-1.4c-0.2-0.6-0.6-0.9-1-0.9c-0.5,0-1.2,0.4-1.9,1.1
					c-0.7,0.7-1.2,1.5-1.4,2.2c-0.2,0.8-0.3,1.8-0.3,3.2v2.7c0,1.6,0,2.6,0.1,3.1c0,0.4,0.2,0.7,0.5,1c0.3,0.2,0.9,0.3,1.6,0.3h0.5
					v0.8h-8v-0.8h0.4c0.7,0,1.3-0.1,1.6-0.3c0.3-0.2,0.5-0.5,0.6-0.9c0.1-0.4,0.1-1.4,0.1-3.2v-4.3c0-1.6,0-2.6-0.1-3.1
					c0-0.4-0.2-0.7-0.5-1c-0.3-0.2-0.9-0.3-1.6-0.3h-0.4v-0.8c1.2-0.1,2.7-0.5,4.5-1.1C309.5,30.1,309.7,31.4,309.8,33z"/>
				<path class="st1" d="M321.1,45.4v-5h0.7c0.8,2.9,2.3,4.3,4.5,4.3c0.9,0,1.6-0.3,2.1-0.8c0.5-0.6,0.7-1.2,0.7-1.9
					c0-0.8-0.2-1.4-0.7-1.9c-0.5-0.5-1.5-1.1-2.9-1.8c-1.5-0.8-2.6-1.5-3.3-2.2c-0.7-0.7-1-1.6-1-2.6c0-1,0.4-1.9,1.1-2.9
					c0.7-0.9,1.7-1.4,3-1.4c1.3,0,2.4,0.5,3.3,1.6c0.2-0.2,0.4-0.6,0.7-1.3h0.7v4.7h-0.7c-0.2-1.1-0.7-2.1-1.4-2.9
					c-0.7-0.8-1.5-1.2-2.5-1.2c-0.7,0-1.3,0.2-1.8,0.7s-0.7,1-0.7,1.6c0,0.7,0.3,1.2,0.8,1.7c0.5,0.5,1.4,1.1,2.8,1.7
					c2.1,0.9,3.4,1.9,3.8,2.8c0.5,0.9,0.7,1.8,0.7,2.6c0,1.3-0.4,2.4-1.3,3.2c-0.9,0.8-2,1.2-3.3,1.2c-1.4,0-2.6-0.6-3.7-1.7
					c-0.3,0.4-0.6,0.9-0.8,1.6H321.1z"/>
				<path class="st1" d="M344.4,30.6h-4.6v9.2c0,1.4,0.1,2.4,0.2,2.8c0.1,0.5,0.4,0.9,0.8,1.2c0.4,0.3,0.8,0.4,1.3,0.4
					c0.9,0,1.7-0.5,2.3-1.5l0.6,0.4c-0.4,0.8-0.9,1.4-1.7,1.8c-0.7,0.4-1.5,0.6-2.3,0.6c-0.9,0-1.7-0.3-2.3-0.8
					c-0.7-0.5-1.1-1.1-1.3-1.8c-0.2-0.7-0.2-1.9-0.2-3.7v-8.6H335v-0.8c1,0,1.9-0.4,2.7-1.3c0.8-0.8,1.3-2,1.5-3.5h0.6v4.8h4.6V30.6
					z"/>
				<path class="st1" d="M359.2,20l4.1-0.2c3.4-0.2,5.8-0.3,7-0.3c3.7,0,6.6,0.6,8.7,1.7c2.1,1.1,3.6,2.7,4.7,4.6
					c1,1.9,1.5,4.2,1.5,6.7c0,1.8-0.3,3.5-0.8,5c-0.6,1.5-1.3,2.8-2.3,3.8c-1,1-2.1,1.8-3.4,2.3c-1.3,0.5-2.5,0.8-3.6,1
					s-2.8,0.2-4.8,0.2h-11.1v-0.8h1c1.1,0,1.8-0.1,2.2-0.4c0.4-0.3,0.7-0.7,0.8-1.3c0.1-0.6,0.2-1.9,0.2-4V26.3c0-2-0.1-3.3-0.2-3.9
					c-0.1-0.6-0.4-1-0.7-1.2c-0.4-0.2-1.2-0.3-2.5-0.3h-0.7V20z M366.9,20.6v16.7c0,2.5,0,4.1,0.1,4.8c0.1,0.7,0.4,1.2,0.8,1.5
					c0.5,0.3,1.4,0.4,2.9,0.4c2.2,0,4-0.3,5.4-0.9c1.4-0.6,2.6-1.8,3.5-3.5c0.9-1.8,1.4-4,1.4-6.7c0-2.1-0.3-4-0.8-5.7
					c-0.5-1.7-1.3-3-2.4-4.1c-1-1-2.2-1.8-3.4-2.1c-1.2-0.4-2.8-0.6-4.8-0.6C368.9,20.5,367.9,20.5,366.9,20.6z"/>
				<path class="st1" d="M406.6,40.6l9.1-20.7h7.7v0.8h-0.9c-1.2,0-2,0.1-2.4,0.3c-0.4,0.2-0.6,0.6-0.8,1.1c-0.1,0.6-0.2,1.9-0.2,4
					v12.3c0,2,0,3.3,0.1,3.9c0.1,0.6,0.3,1.1,0.7,1.4c0.4,0.3,1.2,0.4,2.3,0.4h1.1v0.8h-12v-0.8h0.9c1.1,0,1.8-0.1,2.2-0.4
					c0.4-0.3,0.7-0.7,0.8-1.3c0.1-0.6,0.2-1.9,0.2-4v-16l-9.9,22.5h-0.9l-10-22.5v14.7c0,2,0.1,3.4,0.2,4.1c0.1,0.7,0.5,1.4,1.1,1.9
					c0.6,0.5,1.5,0.9,2.7,0.9v0.8h-9v-0.8c1.1-0.1,1.9-0.4,2.6-0.9c0.7-0.5,1.1-1.2,1.2-1.9c0.1-0.8,0.2-2.2,0.2-4.3V26.1
					c0-2-0.1-3.3-0.2-3.9c-0.1-0.6-0.4-1-0.7-1.2c-0.4-0.2-1.2-0.3-2.5-0.3h-0.7v-0.8h7.6L406.6,40.6z"/>
				<path class="st1" d="M426.9,20l4.1-0.2c3.4-0.2,5.8-0.3,7-0.3c3.7,0,6.6,0.6,8.7,1.7c2.1,1.1,3.6,2.7,4.7,4.6
					c1,1.9,1.5,4.2,1.5,6.7c0,1.8-0.3,3.5-0.8,5c-0.6,1.5-1.3,2.8-2.3,3.8c-1,1-2.1,1.8-3.4,2.3c-1.3,0.5-2.5,0.8-3.6,1
					c-1.1,0.1-2.8,0.2-4.8,0.2h-11.1v-0.8h1c1.1,0,1.8-0.1,2.2-0.4c0.4-0.3,0.7-0.7,0.8-1.3c0.1-0.6,0.2-1.9,0.2-4V26.3
					c0-2-0.1-3.3-0.2-3.9c-0.1-0.6-0.4-1-0.7-1.2c-0.4-0.2-1.2-0.3-2.5-0.3h-0.7V20z M434.6,20.6v16.7c0,2.5,0,4.1,0.1,4.8
					c0.1,0.7,0.4,1.2,0.8,1.5c0.5,0.3,1.4,0.4,2.9,0.4c2.2,0,4-0.3,5.4-0.9c1.4-0.6,2.6-1.8,3.5-3.5c0.9-1.8,1.4-4,1.4-6.7
					c0-2.1-0.3-4-0.8-5.7c-0.5-1.7-1.3-3-2.4-4.1c-1-1-2.2-1.8-3.4-2.1c-1.2-0.4-2.8-0.6-4.8-0.6C436.5,20.5,435.6,20.5,434.6,20.6z
					"/>
			</g>
		</g>
	</g>
	<g>
		<path class="st2" d="M83.6,111.7H2.2V1.6h81.3V111.7z M2.6,111.4h80.6V2H2.6V111.4z"/>
		<g>
			<path class="st3" d="M62.3,106.9c2.6-15.3-2.2-27.7,1.4-40.3c3-10.3,6.5-23.7,6.7-34c0.2-8.6-1-15-5.7-18.7c-4.7-3.7-14.7-3-25,0
				c-10.3,3-10,2.7-20-1c-4-1.5-8.7-1.4-12.5-0.8v94.7H62.3z"/>
			<path class="st4" d="M19.8,13.1c10,3.7,9.7,4,20,1c10.3-3,20.3-3.7,25,0c4.7,3.7,5.9,10.1,5.7,18.7c-0.2,10.2-3.7,23.7-6.7,34
				c-3.7,12.6,1.2,24.9-1.4,40.2h16.5V7H7.3v5.3C11.3,11.6,15.8,11.6,19.8,13.1z"/>
			<path class="st5" d="M8,106.9c4.4-15.4,14.3-47.9,18.8-49c0,0-4.9,1.7-6.7,2.8c0,0-5.9,5.8-12.8,15.1v31.1H8z"/>
			<path class="st4" d="M32.7,62.7c-1.1-1.7-2.4-2.2-3.2-2.2c0.1-0.1,0.2-0.1,0.2-0.1c-5.7,2.6-10.6,40.9-11.3,46.6h26.2
				c-1.6-7.9-4.2-20-6-26.8C37.2,74.7,35.1,66.4,32.7,62.7z"/>
			<path class="st1" d="M32.7,62.7c2.4,3.7,4.6,12,6,17.4c1.8,6.8,4.4,18.9,6,26.8h5.3C47.7,99,43.2,83,40.2,75
				c-3.3-8.7-7.1-15.5-9.8-15c-0.3,0.1-0.6,0.2-0.9,0.5C30.3,60.5,31.6,61,32.7,62.7z"/>
		</g>
	</g>
	<rect x="118.2" y="60" class="st2" width="323" height="0.5"/>
</g>
</svg>
