<svg xmlns="http://www.w3.org/2000/svg" viewBox="0 0 38.62 38.23"><defs><style>.cls-1{fill:#fff;}</style></defs><title>Asset 1</title><g id="Layer_2" data-name="Layer 2"><g id="Layer_3" data-name="Layer 3"><path class="cls-1" d="M9.75,21.46h13.3l-3.2,2.71a1.56,1.56,0,1,0,2,2.38l6.44-5.46a1.55,1.55,0,0,0,.18-.18l0,0a1.53,1.53,0,0,0,.21-.36l0,0s0,0,0,0a1.56,1.56,0,0,0,.09-.4s0,0,0,0a1.56,1.56,0,0,0,0-.39l0-.09a1.54,1.54,0,0,0-.15-.38l0,0a1.56,1.56,0,0,0-.15-.22l-.09-.08,0,0-6.24-5.85A1.56,1.56,0,0,0,20,15.18l3.36,3.15H9.75a1.56,1.56,0,1,0,0,3.12Z"/><path class="cls-1" d="M37.06,0H1.56A1.56,1.56,0,0,0,0,1.56V36.67a1.56,1.56,0,0,0,1.56,1.56h35.5a1.56,1.56,0,0,0,1.56-1.56V1.56A1.56,1.56,0,0,0,37.06,0ZM35.5,35.11H3.12v-32H35.5Z"/></g></g></svg>