<?xml version="1.0" encoding="utf-8"?>
<!-- Generator: Adobe Illustrator 21.0.2, SVG Export Plug-In . SVG Version: 6.00 Build 0)  -->
<!DOCTYPE svg PUBLIC "-//W3C//DTD SVG 1.1//EN" "http://www.w3.org/Graphics/SVG/1.1/DTD/svg11.dtd">
<svg version="1.1" id="Layer_1" xmlns="http://www.w3.org/2000/svg" xmlns:xlink="http://www.w3.org/1999/xlink" x="0px" y="0px"
	 viewBox="0 0 68.1 68.1" style="enable-background:new 0 0 68.1 68.1;" xml:space="preserve">
<style type="text/css">
	.st0{fill:#FFFFFF;}
</style>
<title>Asset 8</title>
<path class="st0" d="M29.4,52.7c-1.5,2.9-3.4,1.4-3.9-2.5c-1-8.4-3.9-8.5-6.5-14.9c-1.7-4.2-1.8-12.5,0.4-15.1s6.8-1.8,9.5,0.2
	c0.5,0.3,1,0.6,1.5,0.8c0.7,0.2,0.8,0.5,0,0.7c-1.3,0.2-2.6,0.2-3.9,0c-1.5-0.2-1.7-0.1-0.1,0.6c5.3,2.7,9.6,1.1,10.9-2.2
	c0.3-0.9,0.7-1.3,1.3-1.5c2.3-0.6,4.8-0.4,6.2,1.3c0.3,0.4,0.5,0.8,0.7,1.2l-0.2,1l-0.2-0.1c-1-0.3-2.1,0.2-2.4,1.2
	c-0.1,0.4-0.1,0.8,0,1.2l0.1,0.3l-2.6,0.5c-1.1,0.2-1.8,1.2-1.7,2.3c0.1,0.9,0.8,1.5,1.7,1.7L43,30l-0.1,0.3c-0.3,1,0.2,2.1,1.2,2.4
	c0.4,0.1,0.8,0.1,1.2,0l0.2-0.1l0.2,1.5c-0.1,0.4-0.2,0.8-0.4,1.1c-2.6,6.4-5.5,6.5-6.5,14.9c-0.5,3.8-2.2,5.3-3.9,2.5
	c-1-1.7-0.8-4.6-1.4-6.6c-0.4-1.2-1-1.9-0.9-3.2c0.2-2.6,2.6-5.1,3.9-6.2c0.7-0.5,1.4-1.1-0.2-0.5c-3.2,1.1-4.9,3.8-5.4,7.1
	C30.5,46.1,30.3,51,29.4,52.7L29.4,52.7z M51,28.8l4.5-0.9c0.2-0.1,0.3-0.3,0.2-0.4c0-0.1-0.1-0.2-0.2-0.2L51,26.4l0.6-2
	c0.1-0.1,0-0.3-0.1-0.3c-0.1,0-0.1,0-0.2,0l-2,0.6l-0.8-5.2c0-0.2-0.2-0.4-0.4-0.4c-0.2,0-0.4,0.2-0.4,0.4l-0.8,5.2L44.8,24
	c-0.1,0-0.3,0-0.3,0.2c0,0.1,0,0.1,0,0.2l0.6,2l-4.5,0.9c-0.2,0.1-0.3,0.3-0.2,0.4c0,0.1,0.1,0.2,0.2,0.2l4.5,0.9l-0.6,2
	c-0.1,0.1,0,0.3,0.1,0.3c0.1,0,0.1,0,0.2,0l2-0.6l0.8,5.2c0,0.2,0.2,0.4,0.4,0.4c0.2,0,0.4-0.2,0.4-0.4l0.8-5.2l2,0.6
	c0.1,0,0.3,0,0.3-0.2c0-0.1,0-0.1,0-0.2L51,28.8z"/>
</svg>
