<?xml version="1.0" encoding="utf-8"?>
<!-- Generator: Adobe Illustrator 19.1.0, SVG Export Plug-In . SVG Version: 6.00 Build 0)  -->
<svg version="1.1" id="Layer_2" xmlns="http://www.w3.org/2000/svg" xmlns:xlink="http://www.w3.org/1999/xlink" x="0px" y="0px"
	 viewBox="0 0 70.5 70.5" style="enable-background:new 0 0 70.5 70.5;" xml:space="preserve">
<style type="text/css">
	.st0{fill-rule:evenodd;clip-rule:evenodd;fill:#99B5C3;}
	.st1{opacity:0.4;fill-rule:evenodd;clip-rule:evenodd;fill:#99B5C3;}
	.st2{fill-rule:evenodd;clip-rule:evenodd;fill:#FFFFFF;}
</style>
<g>
	<path class="st0" d="M35.6,69.3c18.8,0,34.1-15.3,34.1-34.1c0-18.8-15.3-34.1-34.1-34.1C16.8,1.2,1.6,16.5,1.6,35.3
		C1.6,54,16.8,69.3,35.6,69.3z"/>
	<path class="st1" d="M49.9,20.4l19.5,19.5c-2,14.5-13,26.1-27.2,28.9L28.4,55L26,30.8l-3.5-8.4l10,0.3l4.1,4.1l9.7-5.5l3.3,3.3
		L49.9,20.4z"/>
	<path class="st2" d="M31,53.9c-1.5,2.9-3.4,1.4-3.9-2.5c-1-8.4-3.9-8.5-6.5-14.9C18.9,32.4,18.7,24,21,21.5
		c2.3-2.6,6.8-1.8,9.5,0.2c0.5,0.4,1,0.6,1.5,0.8c0.7,0.2,0.8,0.5,0,0.7c-1.3,0.2-2.8,0.1-3.9,0c-1.5-0.2-1.7-0.1-0.2,0.6
		c5.3,2.7,9.6,1.1,10.9-2.2c0.3-0.9,0.7-1.3,1.3-1.4c2.3-0.6,4.8-0.4,6.2,1.3c0.3,0.3,0.5,0.7,0.7,1.2l-0.2,1l-0.2-0.1
		c-1.6-0.4-2.9,0.9-2.4,2.4l0.1,0.3l-2.6,0.5c-2,0.4-2.2,3.4,0,3.9l2.6,0.5l-0.1,0.3c-0.5,1.5,0.8,2.8,2.4,2.4l0.2-0.1l0.2,1.5
		c-0.1,0.4-0.2,0.8-0.4,1.1c-2.6,6.4-5.5,6.5-6.5,14.9c-0.5,3.8-2.2,5.3-3.9,2.5c-1-1.7-0.8-4.6-1.4-6.6c-0.4-1.2-1-1.9-0.9-3.2
		c0.2-2.6,2.6-5.1,3.9-6.1c0.7-0.6,1.4-1.1-0.2-0.5c-3.2,1.1-4.9,3.9-5.4,7.1C32,47.3,31.8,52.3,31,53.9L31,53.9z M52.5,30l4.5-0.9
		c0.3-0.1,0.3-0.6,0-0.7l-4.5-0.9l0.6-2c0.1-0.3-0.1-0.4-0.3-0.3l-2.1,0.6L50,20.6c-0.1-0.5-0.7-0.5-0.8,0l-0.8,5.2l-2.1-0.6
		c-0.2-0.1-0.4,0.1-0.3,0.3l0.6,2l-4.5,0.9c-0.3,0.1-0.3,0.6,0,0.7l4.5,0.9l-0.6,2c-0.1,0.3,0.1,0.4,0.3,0.3l2.1-0.6l0.8,5.2
		c0.1,0.5,0.7,0.5,0.8,0l0.8-5.2l2.1,0.6c0.2,0.1,0.4-0.1,0.3-0.3L52.5,30z"/>
</g>
</svg>
