<?xml version="1.0" encoding="utf-8"?>
<!-- Generator: Adobe Illustrator 21.0.2, SVG Export Plug-In . SVG Version: 6.00 Build 0)  -->
<!DOCTYPE svg PUBLIC "-//W3C//DTD SVG 1.1//EN" "http://www.w3.org/Graphics/SVG/1.1/DTD/svg11.dtd">
<svg version="1.1" id="Layer_1" xmlns="http://www.w3.org/2000/svg" xmlns:xlink="http://www.w3.org/1999/xlink" x="0px" y="0px"
	 viewBox="0 0 103.8 103.8" style="enable-background:new 0 0 103.8 103.8;" xml:space="preserve">
<style type="text/css">
	.st0{fill:#341604;}
	.st1{fill:url(#SVGID_1_);}
	.st2{fill:#FFFFFF;}
</style>
<title>Asset 8</title>
<circle class="st0" cx="51.9" cy="51.9" r="51.9"/>
<image style="overflow:visible;opacity:0.35;enable-background:new    ;" width="99" height="99" xlink:href="6520CC64A7FE0A1C.png"  transform="matrix(1 0 0 1 2.21 2.38)">
</image>
<radialGradient id="SVGID_1_" cx="51.87" cy="54.13" r="43" gradientTransform="matrix(1 0 0 -1 0 106)" gradientUnits="userSpaceOnUse">
	<stop  offset="0.53" style="stop-color:#5C5449"/>
	<stop  offset="0.79" style="stop-color:#5A5247"/>
	<stop  offset="0.9" style="stop-color:#534B40"/>
	<stop  offset="0.98" style="stop-color:#483F33"/>
	<stop  offset="1" style="stop-color:#443B2F"/>
</radialGradient>
<circle class="st1" cx="51.9" cy="51.9" r="43"/>
<image style="overflow:visible;opacity:0.35;enable-background:new    ;" width="60" height="75" xlink:href="6520CC64A7FE0A1D.png"  transform="matrix(1 0 0 1 25.21 13.38)">
</image>
<path class="st2" d="M61.3,20.1c-9.8,0-17.8,8-17.8,17.8c0,9.8,8,17.8,17.8,17.8c9.8,0,17.8-8,17.8-17.8
	C79.1,28.1,71.2,20.1,61.3,20.1C61.3,20.1,61.3,20.1,61.3,20.1z M70.1,39.8h-6.9v6.9h-3.8v-6.9h-6.9V36h6.9v-6.9h3.8V36h6.9V39.8z"
	/>
<path class="st2" d="M61.3,58.3C50,58.3,40.9,49.2,40.9,38c0-5,1.8-9.8,5.1-13.5l-1.1-0.3c-1.2-0.3-2.4-0.5-3.6-0.6
	c-2.5,0-9.3,2-9.3,10.7c0,5.5,2.2,9.4,3.3,12.2c0.6,1.6,1.9,2.8,1.9,3.8v0.3c0,9.5-0.2,17.4,0.9,22.1c1.3,5.8,2.6,9.2,4.2,9.2
	c1.1,0,1.4-4,1.7-7.1c0.2-1.7,0.3-3.5,0.6-5.1c0.8-4.6,3.2-9.3,6.6-9.3s5.8,4.7,6.6,9.3c0.3,1.6,0.5,3.4,0.7,5.1
	c0.3,3.2,0.8,7.1,1.9,7.1s3.1-1.2,5-9.2c1-5,1.6-10.1,1.8-15.2C65.2,58,63.3,58.3,61.3,58.3z"/>
</svg>
