<?xml version="1.0" encoding="utf-8"?>
<!-- Generator: Adobe Illustrator 21.0.2, SVG Export Plug-In . SVG Version: 6.00 Build 0)  -->
<!DOCTYPE svg PUBLIC "-//W3C//DTD SVG 1.1//EN" "http://www.w3.org/Graphics/SVG/1.1/DTD/svg11.dtd">
<svg version="1.1" id="Layer_1" xmlns="http://www.w3.org/2000/svg" xmlns:xlink="http://www.w3.org/1999/xlink" x="0px" y="0px"
	 viewBox="0 0 41.3 41.3" style="enable-background:new 0 0 41.3 41.3;" xml:space="preserve">
<style type="text/css">
	.st0{fill:none;}
	.st1{fill:#FFFFFF;}
</style>
<polygon class="st0" points="24.8,9.1 23.2,9.1 23.2,11.9 20.4,11.9 20.4,13.5 23.2,13.5 23.2,16.3 24.8,16.3 24.8,13.5 27.6,13.5 
	27.6,11.9 24.8,11.9 "/>
<g>
	<g>
		<path class="st1" d="M16.2,13.5c0-0.9,0.2-1.8,0.5-2.7c-1.4-0.3-2.8-0.2-3.7,0.9c-1.4,1.6-1.3,6.7-0.3,9.2c1.6,3.9,3.4,3.9,4,9
			c0.3,2.3,1.4,3.3,2.3,1.5c0.5-1,0.6-4,0.8-5.6c0.3-2,1.4-3.7,3.3-4.3c0.9-0.4,0.5,0,0.1,0.3c-0.8,0.6-2.3,2.1-2.4,3.7
			c0,0.8,0.4,1.1,0.6,1.9c0.4,1.2,0.3,2.9,0.9,4c1,1.7,2,0.8,2.3-1.5c0.7-5.1,2.4-5.1,4-9c0.2-0.4,0.3-0.9,0.4-1.4
			c-1.4,1.1-3.1,1.8-5,1.8C19.7,21.3,16.2,17.8,16.2,13.5z"/>
	</g>
	<path class="st1" d="M24,6.7c-3.8,0-6.8,3.1-6.8,6.8c0,3.8,3.1,6.8,6.8,6.8c3.8,0,6.8-3.1,6.8-6.8C30.8,9.7,27.8,6.7,24,6.7z
		 M27.6,14.3h-2.8v2.8h-1.6v-2.8h-2.8v-1.6h2.8V9.9h1.6v2.8h2.8V14.3z"/>
</g>
</svg>
