<?xml version="1.0" encoding="utf-8"?>
<!-- Generator: Adobe Illustrator 19.1.0, SVG Export Plug-In . SVG Version: 6.00 Build 0)  -->
<svg version="1.1" id="Layer_1" xmlns="http://www.w3.org/2000/svg" xmlns:xlink="http://www.w3.org/1999/xlink" x="0px" y="0px"
	 viewBox="0 0 70.5 70.5" style="enable-background:new 0 0 70.5 70.5;" xml:space="preserve">
<style type="text/css">
	.st0{fill-rule:evenodd;clip-rule:evenodd;fill:#99B5C3;}
	.st1{opacity:0.4;fill-rule:evenodd;clip-rule:evenodd;fill:#99B5C3;}
	.st2{fill-rule:evenodd;clip-rule:evenodd;fill:#FFFFFF;}
</style>
<g>
	<path class="st0" d="M35.3,69.3C54,69.3,69.3,54,69.3,35.2C69.3,16.5,54,1.2,35.3,1.2C16.5,1.2,1.2,16.5,1.2,35.2
		C1.2,54,16.5,69.3,35.3,69.3z"/>
	<path class="st1" d="M23.5,55.7l-1.9-19.6L19.7,24l7.7,0.8l2.2,2.2l6.3-7.3l9.2-1.6l7.1,2.8l17.1,17.1C67.9,54.8,54.1,68.4,37,69.2
		L23.5,55.7z"/>
	<path class="st2" d="M26,54.6c-1.4,2.8-3.2,1.3-3.7-2.3c-1-8-3.7-8.1-6.2-14.2c-1.6-4-1.7-12,0.4-14.4c2.2-2.5,6.5-1.8,9.1,0.2
		c0.5,0.4,1,0.6,1.4,0.7c0.2,0.1,0.4,0.1,0.4,0.2c0.1,0.1,0,0.3-0.1,0.3c-0.1,0-0.2,0.1-0.4,0.1c-1.3,0.2-2.7,0.1-3.7,0
		c-1.4-0.2-1.6-0.1-0.1,0.6c1.3,0.7,2.6,1.1,3.8,1.2c-0.2,1.2-0.3,2.4-0.3,3.7c0.1,2,0.5,4,1.4,5.8c0.6,1.3,1.4,2.5,2.3,3.5
		c-1.6,1.3-2.6,3.3-2.9,5.6C26.9,48.4,26.8,53.1,26,54.6L26,54.6z M45.5,44.8l1.9,4.9c1.6,3.6,7.8,0.6,6-2.8L51,42.2
		c-0.8,0.6-1.7,1.1-2.6,1.5C47.5,44.2,46.5,44.5,45.5,44.8L45.5,44.8z M36.2,17.6c-3.4,1.6-5.9,4.5-7.1,7.8
		c-1.2,3.3-1.1,7.1,0.5,10.5c1.6,3.4,4.5,5.9,7.8,7.1c3.3,1.2,7.1,1.1,10.5-0.5c3.4-1.6,5.9-4.5,7.1-7.8c1.2-3.3,1.1-7.1-0.5-10.5
		c-1.6-3.4-4.5-5.9-7.8-7.1C43.4,16,39.6,16,36.2,17.6L36.2,17.6z M45.4,20.8c2.4,0.9,4.4,2.6,5.6,5.1c1.2,2.5,1.2,5.2,0.3,7.6
		c-0.9,2.4-2.6,4.4-5.1,5.6c-2.5,1.2-5.2,1.2-7.6,0.3c-2.4-0.9-4.4-2.7-5.6-5.1c-1.2-2.5-1.2-5.2-0.3-7.6c0.9-2.4,2.6-4.4,5.1-5.6
		C40.3,19.9,43,19.9,45.4,20.8L45.4,20.8z M39,22.4c0.7,0.3,1.3,0.6,1.8,1.2c2.2,2.5,2,10.5,0.4,14.4c0,0.1-0.1,0.2-0.1,0.3
		c-0.7-0.1-1.3-0.2-1.9-0.4c-1-0.4-2-0.9-2.8-1.7c-0.8-0.7-1.4-1.6-1.9-2.6c-0.5-1-0.7-2.1-0.8-3.1c0-1.1,0.1-2.2,0.5-3.2
		c0.4-1,0.9-2,1.7-2.8c0.7-0.8,1.6-1.4,2.6-1.9C38.7,22.5,38.9,22.5,39,22.4L39,22.4z M37.3,44.8c-0.2-0.1-0.4-0.1-0.6-0.2
		c-1.9-0.7-3.6-1.7-5.2-3.1c-0.2-0.1-0.3-0.3-0.5-0.5c-1,1.2-1.9,2.7-2.1,4.3c-0.1,1.2,0.5,1.8,0.9,3c0.6,1.9,0.4,4.6,1.4,6.3
		c1.6,2.7,3.2,1.3,3.7-2.3C35.4,48.5,36.3,46.5,37.3,44.8z"/>
</g>
</svg>
