<?xml version="1.0" encoding="utf-8"?>
<!-- Generator: Adobe Illustrator 21.0.2, SVG Export Plug-In . SVG Version: 6.00 Build 0)  -->
<!DOCTYPE svg PUBLIC "-//W3C//DTD SVG 1.1//EN" "http://www.w3.org/Graphics/SVG/1.1/DTD/svg11.dtd">
<svg version="1.1" id="Layer_1" xmlns="http://www.w3.org/2000/svg" xmlns:xlink="http://www.w3.org/1999/xlink" x="0px" y="0px"
	 viewBox="0 0 68.1 68.1" style="enable-background:new 0 0 68.1 68.1;" xml:space="preserve">
<style type="text/css">
	.st0{fill:#FFFFFF;}
</style>
<title>Asset 8</title>
<path class="st0" d="M40.9,11.9c-1.9,0-4.2,1.2-7.4,1.2s-5.5-1.2-7.4-1.2s-7.4,1.5-7.4,8.3c0.1,3.5,0.9,7,2.3,10.2h4.1
	c0.5,0,0.9-0.4,0.9-0.9v-5.6c0-1.5,1.2-2.8,2.8-2.8h9.2c1.5,0,2.8,1.2,2.8,2.8v5.5c0,0.5,0.4,0.9,0.9,0.9H46
	c1.4-3.2,2.2-6.7,2.3-10.2C48.3,13.4,42.8,11.9,40.9,11.9z"/>
<path class="st0" d="M41.8,32.3c-1.5,0-2.8-1.2-2.8-2.7c0,0,0,0,0,0v-5.5c0-0.5-0.4-0.9-0.9-0.9h-9.2c-0.5,0-0.9,0.4-0.9,0.9v5.5
	c0,1.5-1.2,2.8-2.8,2.8h-3.7c0,1.1-0.1,11,1.3,16.9c1,4.2,2.3,7.1,3.9,7.1s1.5-5.5,2.2-9.5s2.5-9,4.6-9s3.9,5.1,4.6,9
	s0.7,9.5,2.2,9.5s2.9-2.9,3.9-7.1c1.4-5.9,1.3-15.8,1.3-16.9L41.8,32.3z"/>
</svg>
