<?xml version="1.0" encoding="utf-8"?>
<!-- Generator: Adobe Illustrator 19.1.0, SVG Export Plug-In . SVG Version: 6.00 Build 0)  -->
<svg version="1.1" id="Layer_2" xmlns="http://www.w3.org/2000/svg" xmlns:xlink="http://www.w3.org/1999/xlink" x="0px" y="0px"
	 viewBox="-270 361.5 70.5 70.5" style="enable-background:new -270 361.5 70.5 70.5;" xml:space="preserve">
<style type="text/css">
	.st0{fill:#99B5C3;}
	.st1{opacity:0.4;fill:#99B5C3;enable-background:new    ;}
	.st2{fill-rule:evenodd;clip-rule:evenodd;fill:#FFFFFF;}
	.st3{fill:#FFFFFF;stroke:#99B5C3;stroke-width:1.5;stroke-linecap:round;stroke-linejoin:round;stroke-miterlimit:10;}
	.st4{fill:#99B5C3;stroke:#99B5C3;stroke-width:0.3856;stroke-miterlimit:10;}
</style>
<g>
	<path class="st0" d="M-234.4,430.8c18.8,0,34.1-15.3,34.1-34.1c0-18.8-15.3-34.1-34.1-34.1c-18.8,0.1-34,15.4-34,34.2
		C-268.4,415.5-253.2,430.8-234.4,430.8z"/>
	<path class="st1" d="M-220.1,381.9l19.5,19.5c-2,14.5-13,26.1-27.2,28.9l-13.8-13.8l-2.4-24.2l-3.5-8.4l10,0.3l4.1,4.1l9.7-5.5
		l3.3,3.3L-220.1,381.9z"/>
</g>
<g>
	<g>
		<path class="st2" d="M-238.6,415.4c-1.5,2.9-3.4,1.4-3.9-2.5c-1.1-8.5-3.9-8.6-6.6-15.1c-1.7-4.2-1.8-12.7,0.4-15.3
			c2.3-2.6,6.8-1.9,9.6,0.2c0.5,0.4,1,0.6,1.5,0.8c0.7,0.2,0.8,0.5,0,0.7c-1.4,0.2-2.8,0.1-4,0c-1.5-0.2-1.7-0.1-0.2,0.7
			c5.3,2.7,9.7,1.2,11-2.3c0.3-1,0.7-1.3,1.4-1.5c2.3-0.6,4.8-0.4,6.3,1.4c2.3,2.6,2.2,11.1,0.4,15.3c-2.7,6.5-5.5,6.6-6.6,15.1
			c-0.5,3.9-2.2,5.3-3.9,2.5c-1-1.8-0.8-4.7-1.4-6.7c-0.4-1.3-1-1.9-0.9-3.2c0.2-2.7,2.6-5.1,3.9-6.2c0.7-0.6,1.4-1.1-0.2-0.5
			c-3.2,1.1-4.9,3.9-5.5,7.2C-237.5,408.7-237.7,413.7-238.6,415.4z"/>
	</g>
	<circle id="XMLID_4_" class="st3" cx="-230.2" cy="385.6" r="12.2"/>
	<polygon id="XMLID_1_" class="st4" points="-231.4,391.6 -231.4,386.9 -236.2,386.9 -236.2,384.3 -231.4,384.3 -231.4,379.6 
		-228.9,379.6 -228.9,384.3 -224.2,384.3 -224.2,386.9 -228.9,386.9 -228.9,391.6 	"/>
</g>
</svg>
