<?xml version="1.0" encoding="utf-8"?>
<!-- Generator: Adobe Illustrator 19.1.0, SVG Export Plug-In . SVG Version: 6.00 Build 0)  -->
<svg version="1.1" id="Layer_2" xmlns="http://www.w3.org/2000/svg" xmlns:xlink="http://www.w3.org/1999/xlink" x="0px" y="0px"
	 viewBox="-270 361.5 70.5 70.5" style="enable-background:new -270 361.5 70.5 70.5;" xml:space="preserve">
<style type="text/css">
	.st0{fill:#99B5C3;}
	.st1{opacity:0.4;fill:#99B5C3;enable-background:new    ;}
	.st2{fill:#FFFFFF;}
</style>
<g>
	<path class="st0" d="M-234.4,430.8c18.8,0,34.1-15.3,34.1-34.1c0-18.8-15.3-34.1-34.1-34.1c-18.8,0.1-34,15.4-34,34.2
		C-268.4,415.5-253.2,430.8-234.4,430.8z"/>
	<path class="st1" d="M-220.1,381.9l19.5,19.5c-2,14.5-13,26.1-27.2,28.9l-13.8-13.8l-2.4-24.2l-3.5-8.4l10,0.3l4.1,4.1l9.7-5.5
		l3.3,3.3L-220.1,381.9z"/>
</g>
<g>
	<path class="st2" d="M-227,375.4c-1.8,0-4,1.1-7,1.1c-3,0-5.2-1.1-7-1.1c-1.8,0-7,1.4-7,7.9c0,4.6,1.5,7.6,2.2,9.6h3.9
		c0.5,0,0.9-0.4,0.9-0.9v-5.3c0-1.5,1.2-2.6,2.6-2.6h8.8c1.5,0,2.6,1.2,2.6,2.6v5.3c0,0.5,0.4,0.9,0.9,0.9h3.9
		c0.7-2,2.2-5.1,2.2-9.6C-220,376.8-225.2,375.4-227,375.4z"/>
	<g>
		<path class="st2" d="M-226.1,394.7c-1.5,0-2.6-1.2-2.6-2.6v-5.3c0-0.5-0.4-0.9-0.9-0.9h-8.8c-0.5,0-0.9,0.4-0.9,0.9v5.3
			c0,1.5-1.2,2.6-2.6,2.6h-3.5c0,1.1-0.1,10.5,1.2,16c0.9,4,2.2,6.8,3.7,6.8c1.5,0,1.4-5.2,2.1-9c0.7-3.8,2.4-8.6,4.4-8.6
			c2,0,3.7,4.8,4.4,8.6c0.7,3.8,0.6,9,2.1,9c1.5,0,2.7-2.8,3.7-6.8c1.3-5.6,1.2-14.9,1.2-16H-226.1z"/>
	</g>
</g>
</svg>
