<svg viewBox="0 0 342.91 235.76"><title>Angies List</title><g id="angies-list" data-name="Layer 2"><path class="angies-list-path" d="M126.16,235.76c-6.52-12.83-12.76-25.09-19-37.35C101.54,187.28,95.7,176.25,90.39,165c-2-4.33-4.4-5.82-9.32-5.89-32.62-.43-57.45-14.7-72.42-43.85C-17.66,64,19.18,1.5,76.75.63,139.88-.33,203-.07,266.17.57c41.41.42,75.15,34.65,76.68,76a79.23,79.23,0,0,1-70.79,82,109.12,109.12,0,0,1-11.46.63q-46.23.07-92.46,0c-3.31,0-5,1-6.41,4-10.8,22.48-21.83,44.85-32.8,67.25C128.16,232,127.31,233.56,126.16,235.76Zm0-67.18c5.14-14,10-26.78,14.4-39.67,1.36-4,3.2-5.23,7.38-5.22q56.73.26,113.46.07a54.15,54.15,0,0,0,11.41-1c21.65-4.74,36.82-25.39,34.5-46.68-2.56-23.52-20.83-40.38-44.3-40.42q-91.47-.16-182.94,0A44.37,44.37,0,0,0,35.43,79.4c-.29,24.34,19.56,44.17,44.5,44.38,8.33.07,16.67.24,25-.08,3.84-.15,5.55,1.13,6.79,4.71C116.2,141.41,121,154.3,126.2,168.58Z"/></g></svg>